<svg version="1.1" id="Layer_1" xmlns="http://www.w3.org/2000/svg" xmlns:xlink="http://www.w3.org/1999/xlink" x="0px" y="0px"
	 width="100%" viewBox="0 0 403 327" enable-background="new 0 0 403 327" xml:space="preserve">
<path fill="#000000" opacity="1.000000" stroke="none" 
	d="
M271.000000,328.000000 
	C180.697433,328.000000 90.894859,328.000000 1.046142,328.000000 
	C1.046142,219.068100 1.046142,110.136185 1.046142,1.102129 
	C135.219177,1.102129 269.438477,1.102129 403.828857,1.102129 
	C403.828857,109.999779 403.828857,218.999863 403.828857,328.000000 
	C359.802948,328.000000 315.651459,328.000000 271.000000,328.000000 
M74.415985,297.524414 
	C74.300194,297.865234 74.184402,298.206055 74.565552,298.993805 
	C76.376640,299.532379 78.183922,300.525116 79.999413,300.540405 
	C102.154549,300.726440 124.311401,300.854523 146.466156,300.721710 
	C148.787918,300.707794 151.660873,299.509247 153.326355,297.884613 
	C166.680344,284.858124 180.330948,272.069336 192.785309,258.214111 
	C199.300629,250.965927 206.296890,251.671173 214.907104,253.412827 
	C207.592941,260.288208 200.278793,267.163605 192.964630,274.038971 
	C193.208679,274.485931 193.452713,274.932892 193.696747,275.379852 
	C195.276688,275.534241 196.856094,275.815918 198.436646,275.822357 
	C208.765167,275.864502 219.099396,275.652283 229.420029,275.941711 
	C233.750977,276.063171 236.841660,274.757843 239.886795,271.683228 
	C262.393555,248.958664 285.060303,226.392593 307.663727,203.763702 
	C308.925323,202.500671 310.071686,201.122543 311.857880,199.150986 
	C309.648712,198.821960 308.250854,198.431549 306.853363,198.432831 
	C284.031677,198.453735 261.209778,198.488754 238.388931,198.656158 
	C236.713150,198.668442 234.656265,199.279190 233.439178,200.358749 
	C227.497314,205.629135 221.251160,210.708801 216.178162,216.750580 
	C213.018051,220.514175 209.734253,221.322922 205.505020,221.282043 
	C189.023575,221.122650 172.541702,220.909302 156.060532,220.948502 
	C154.143005,220.953049 151.752487,221.918747 150.384659,223.258865 
	C129.811737,243.415344 109.373627,263.709412 88.275139,284.100098 
	C81.078247,284.898468 79.037979,290.979828 75.641357,296.458771 
	C75.352356,296.681915 75.063362,296.905029 74.415985,297.524414 
M177.561020,144.167145 
	C191.887238,144.166077 206.217407,143.974518 220.537445,144.271317 
	C225.296814,144.369980 228.561829,142.816010 231.881973,139.506042 
	C255.230515,116.229095 278.775482,93.149223 302.228546,69.976891 
	C302.983795,69.230698 303.425323,68.166985 304.276550,66.840851 
	C303.029480,66.538574 302.279602,66.198608 301.529419,66.197914 
	C277.542175,66.175819 253.554779,66.158241 229.567917,66.259895 
	C228.064362,66.266273 226.138901,66.819344 225.127808,67.833771 
	C211.270432,81.736938 197.116516,95.383629 183.961151,109.930473 
	C177.660706,116.897331 170.890640,114.622589 163.978241,114.918663 
	C163.548828,114.298492 163.119415,113.678314 162.690002,113.058144 
	C170.584412,105.375999 178.478821,97.693855 186.960800,89.439934 
	C184.595016,89.305016 182.999847,89.139893 181.404190,89.135040 
	C170.742798,89.102638 160.078323,89.245193 149.421524,89.017876 
	C145.748611,88.939529 143.209717,90.200508 140.689606,92.755402 
	C126.886261,106.749237 112.903282,120.565643 99.043556,134.504196 
	C88.030525,145.579849 77.105843,156.743332 65.758560,168.256821 
	C67.114639,168.614914 67.571053,168.840286 68.027832,168.841019 
	C91.849098,168.878769 115.670914,168.968384 139.490707,168.789322 
	C141.488419,168.774292 143.848969,167.338226 145.395493,165.878494 
	C151.085480,160.507843 156.744919,155.064316 161.946671,149.229889 
	C166.047302,144.630493 170.688980,142.914185 177.561020,144.167145 
M320.447540,249.947418 
	C327.556091,242.610245 334.664673,235.273071 342.553070,227.130997 
	C330.585449,227.130997 319.510986,227.235550 308.440247,227.076874 
	C304.312378,227.017715 301.185364,228.381042 298.269379,231.298904 
	C287.097717,242.477768 275.706604,253.437027 264.502380,264.583740 
	C261.315582,267.754150 258.484619,271.282196 254.921539,275.285461 
	C257.119141,275.561096 258.223022,275.815369 259.327942,275.820160 
	C269.655426,275.864990 279.989441,276.066193 290.306152,275.737885 
	C292.808838,275.658234 295.800995,274.372406 297.631439,272.647308 
	C305.264557,265.453674 312.540405,257.880920 320.447540,249.947418 
M113.435181,101.935364 
	C116.997307,98.768707 120.559433,95.602058 124.121559,92.435402 
	C123.763229,91.997871 123.404907,91.560349 123.046577,91.122818 
	C120.833672,91.408913 118.614044,91.982635 116.409042,91.931030 
	C107.139603,91.714119 97.858200,91.541100 88.614136,90.886490 
	C83.248795,90.506546 79.850273,92.979324 76.943565,96.897964 
	C76.161316,97.952545 75.416130,99.062492 74.485001,99.974564 
	C62.369698,111.841721 50.207165,123.660751 38.123230,135.559647 
	C37.308266,136.362137 37.028549,137.708176 36.474110,138.854736 
	C37.371468,139.332932 37.794067,139.753128 38.220100,139.756638 
	C49.210960,139.847122 60.211460,140.155777 71.186836,139.766220 
	C73.954994,139.667953 77.204918,137.895370 79.274536,135.898407 
	C90.658638,124.913902 101.745071,113.620895 113.435181,101.935364 
z"/>
<path fill="#59636F" opacity="1.000000" stroke="none" 
	d="
M88.903824,283.971130 
	C109.373627,263.709412 129.811737,243.415344 150.384659,223.258865 
	C151.752487,221.918747 154.143005,220.953049 156.060532,220.948502 
	C172.541702,220.909302 189.023575,221.122650 205.505020,221.282043 
	C209.734253,221.322922 213.018051,220.514175 216.178162,216.750580 
	C221.251160,210.708801 227.497314,205.629135 233.439178,200.358749 
	C234.656265,199.279190 236.713150,198.668442 238.388931,198.656158 
	C261.209778,198.488754 284.031677,198.453735 306.853363,198.432831 
	C308.250854,198.431549 309.648712,198.821960 311.857880,199.150986 
	C310.071686,201.122543 308.925323,202.500671 307.663727,203.763702 
	C285.060303,226.392593 262.393555,248.958664 239.886795,271.683228 
	C236.841660,274.757843 233.750977,276.063171 229.420029,275.941711 
	C219.099396,275.652283 208.765167,275.864502 198.436646,275.822357 
	C196.856094,275.815918 195.276688,275.534241 193.696747,275.379852 
	C193.452713,274.932892 193.208679,274.485931 192.964630,274.038971 
	C200.278793,267.163605 207.592941,260.288208 214.907104,253.412827 
	C206.296890,251.671173 199.300629,250.965927 192.785309,258.214111 
	C180.330948,272.069336 166.680344,284.858124 153.326355,297.884613 
	C151.660873,299.509247 148.787918,300.707794 146.466156,300.721710 
	C124.311401,300.854523 102.154549,300.726440 79.999413,300.540405 
	C78.183922,300.525116 76.376640,299.532379 74.496246,298.566559 
	C74.542740,297.802277 74.658554,297.465210 74.774361,297.128174 
	C75.063362,296.905029 75.352356,296.681915 76.170105,296.185455 
	C80.767181,291.931793 84.835503,287.951477 88.903824,283.971130 
z"/>
<path fill="#59636F" opacity="1.000000" stroke="none" 
	d="
M177.074554,144.170624 
	C170.688980,142.914185 166.047302,144.630493 161.946671,149.229889 
	C156.744919,155.064316 151.085480,160.507843 145.395493,165.878494 
	C143.848969,167.338226 141.488419,168.774292 139.490707,168.789322 
	C115.670914,168.968384 91.849098,168.878769 68.027832,168.841019 
	C67.571053,168.840286 67.114639,168.614914 65.758560,168.256821 
	C77.105843,156.743332 88.030525,145.579849 99.043556,134.504196 
	C112.903282,120.565643 126.886261,106.749237 140.689606,92.755402 
	C143.209717,90.200508 145.748611,88.939529 149.421524,89.017876 
	C160.078323,89.245193 170.742798,89.102638 181.404190,89.135040 
	C182.999847,89.139893 184.595016,89.305016 186.960800,89.439934 
	C178.478821,97.693855 170.584412,105.375999 162.690002,113.058144 
	C163.119415,113.678314 163.548828,114.298492 163.978241,114.918663 
	C170.890640,114.622589 177.660706,116.897331 183.961151,109.930473 
	C197.116516,95.383629 211.270432,81.736938 225.127808,67.833771 
	C226.138901,66.819344 228.064362,66.266273 229.567917,66.259895 
	C253.554779,66.158241 277.542175,66.175819 301.529419,66.197914 
	C302.279602,66.198608 303.029480,66.538574 304.276550,66.840851 
	C303.425323,68.166985 302.983795,69.230698 302.228546,69.976891 
	C278.775482,93.149223 255.230515,116.229095 231.881973,139.506042 
	C228.561829,142.816010 225.296814,144.369980 220.537445,144.271317 
	C206.217407,143.974518 191.887238,144.166077 177.074554,144.170624 
z"/>
<path fill="#59626E" opacity="1.000000" stroke="none" 
	d="
M320.197388,250.197311 
	C312.540405,257.880920 305.264557,265.453674 297.631439,272.647308 
	C295.800995,274.372406 292.808838,275.658234 290.306152,275.737885 
	C279.989441,276.066193 269.655426,275.864990 259.327942,275.820160 
	C258.223022,275.815369 257.119141,275.561096 254.921539,275.285461 
	C258.484619,271.282196 261.315582,267.754150 264.502380,264.583740 
	C275.706604,253.437027 287.097717,242.477768 298.269379,231.298904 
	C301.185364,228.381042 304.312378,227.017715 308.440247,227.076874 
	C319.510986,227.235550 330.585449,227.130997 342.553070,227.130997 
	C334.664673,235.273071 327.556091,242.610245 320.197388,250.197311 
z"/>
<path fill="#5A636F" opacity="1.000000" stroke="none" 
	d="
M113.184418,102.184555 
	C101.745071,113.620895 90.658638,124.913902 79.274536,135.898407 
	C77.204918,137.895370 73.954994,139.667953 71.186836,139.766220 
	C60.211460,140.155777 49.210960,139.847122 38.220100,139.756638 
	C37.794067,139.753128 37.371468,139.332932 36.474110,138.854736 
	C37.028549,137.708176 37.308266,136.362137 38.123230,135.559647 
	C50.207165,123.660751 62.369698,111.841721 74.485001,99.974564 
	C75.416130,99.062492 76.161316,97.952545 76.943565,96.897964 
	C79.850273,92.979324 83.248795,90.506546 88.614136,90.886490 
	C97.858200,91.541100 107.139603,91.714119 116.409042,91.931030 
	C118.614044,91.982635 120.833672,91.408913 123.046577,91.122818 
	C123.404907,91.560349 123.763229,91.997871 124.121559,92.435402 
	C120.559433,95.602058 116.997307,98.768707 113.184418,102.184555 
z"/>
<path fill="#111418" opacity="1.000000" stroke="none" 
	d="
M88.589478,284.035614 
	C84.835503,287.951477 80.767181,291.931793 76.360069,295.986481 
	C79.037979,290.979828 81.078247,284.898468 88.589478,284.035614 
z"/>
<path fill="#111418" opacity="1.000000" stroke="none" 
	d="
M74.595169,297.326294 
	C74.658554,297.465210 74.542740,297.802277 74.247772,298.343079 
	C74.184402,298.206055 74.300194,297.865234 74.595169,297.326294 
z"/>
</svg>